<?xml version="1.0" encoding="UTF-8"?>
<svg width="49px" height="50px" viewBox="0 0 49 50" version="1.1" xmlns="http://www.w3.org/2000/svg" xmlns:xlink="http://www.w3.org/1999/xlink">
    <defs></defs>
    <g id="Page-1" stroke="none" stroke-width="1" fill="none" fill-rule="evenodd">
        <g id="Progress-report-dedicated-developer-" transform="translate(-420.000000, -424.000000)" fill="#444444" fill-rule="nonzero">
            <g id="noun_Smile_746240" transform="translate(420.000000, 424.000000)">
                <g id="Group" transform="translate(0.000000, 0.346641)">
                    <path d="M24.4565217,0.196842391 C10.9624457,0.196842391 0,11.1593478 0,24.6533696 C0,38.1474457 10.9624457,49.1098913 24.4565217,49.1098913 C37.9505978,49.1098913 48.9130435,38.1474457 48.9130435,24.6533696 C48.9130435,11.1593533 37.9505978,0.196847826 24.4565217,0.196847826 L24.4565217,0.196842391 Z M24.4565217,2.37075543 C36.7757065,2.37075543 46.7391304,12.3342283 46.7391304,24.6533696 C46.7391304,36.9725543 36.7757065,46.9359783 24.4565217,46.9359783 C12.137337,46.9359783 2.17391293,36.9725543 2.17391293,24.6533696 C2.17391293,12.3342337 12.137337,2.37076087 24.4565217,2.37076087 L24.4565217,2.37075543 Z M15.2173913,14.3272772 C13.416413,14.3272772 11.9565217,15.7872283 11.9565217,17.5881467 C11.9565217,19.3890652 13.416413,20.8490163 15.2173913,20.8490163 C17.0183152,20.8490163 18.4782609,19.3890652 18.4782609,17.5881467 C18.4782609,15.7872283 17.0183152,14.3272772 15.2173913,14.3272772 Z M33.6956522,14.3272772 C31.8947283,14.3272772 30.4347826,15.7872283 30.4347826,17.5881467 C30.4347826,19.3890652 31.8947283,20.8490163 33.6956522,20.8490163 C35.4966304,20.8490163 36.9565217,19.3890652 36.9565217,17.5881467 C36.9565217,15.7872283 35.4966304,14.3272772 33.6956522,14.3272772 Z M36.396087,38.7838043 C36.0330978,38.7609783 35.6884239,38.5419565 35.5129348,38.2233152 C33.0654348,34.5624457 29.0303261,32.1771196 24.4565217,32.1771196 C19.8827174,32.1771196 15.8476087,34.5624457 13.4001087,38.2233152 C13.1849457,38.5567391 12.7760326,38.7544022 12.381087,38.7158696 C11.635163,38.6374457 11.1740217,37.6348913 11.5998913,37.0175 C14.4207609,32.7976087 19.1271739,30.0032065 24.4565217,30.0032065 C29.7858696,30.0032065 34.4922826,32.7976087 37.3131522,37.0175 C37.8214674,38.0034783 37.2547283,38.7442935 36.396087,38.7838043 Z" id="Shape"></path>
                </g>
            </g>
        </g>
    </g>
</svg>
