<?xml version="1.0" encoding="UTF-8"?>
<svg width="49px" height="50px" viewBox="0 0 49 50" version="1.1" xmlns="http://www.w3.org/2000/svg" xmlns:xlink="http://www.w3.org/1999/xlink">
    <defs></defs>
    <g id="Page-1" stroke="none" stroke-width="1" fill="none" fill-rule="evenodd">
        <g id="Progress-report-dedicated-developer-" transform="translate(-300.000000, -424.000000)" fill="#444444" fill-rule="nonzero">
            <g id="noun_Smile_746240" transform="translate(300.000000, 424.000000)">
                <g id="Group" transform="translate(0.000000, 0.346641)">
                    <path d="M24.4565217,0.196842391 C10.9624457,0.196842391 0,11.1593478 0,24.6533696 C0,38.1474457 10.9624457,49.1098913 24.4565217,49.1098913 C37.9505978,49.1098913 48.9130435,38.1474457 48.9130435,24.6533696 C48.9130435,11.1593533 37.9505978,0.196847826 24.4565217,0.196847826 L24.4565217,0.196842391 Z M24.4565217,2.37075543 C36.7757065,2.37075543 46.7391304,12.3342283 46.7391304,24.6533696 C46.7391304,36.9725543 36.7757065,46.9359783 24.4565217,46.9359783 C12.137337,46.9359783 2.17391293,36.9725543 2.17391293,24.6533696 C2.17391293,12.3342337 12.137337,2.37076087 24.4565217,2.37076087 L24.4565217,2.37075543 Z M15.2173913,14.3272772 C13.416413,14.3272772 11.9565217,15.7872283 11.9565217,17.5881467 C11.9565217,19.3890652 13.416413,20.8490163 15.2173913,20.8490163 C17.0183152,20.8490163 18.4782609,19.3890652 18.4782609,17.5881467 C18.4782609,15.7872283 17.0183152,14.3272772 15.2173913,14.3272772 Z M33.6956522,14.3272772 C31.8947283,14.3272772 30.4347826,15.7872283 30.4347826,17.5881467 C30.4347826,19.3890652 31.8947283,20.8490163 33.6956522,20.8490163 C35.4966304,20.8490163 36.9565217,19.3890652 36.9565217,17.5881467 C36.9565217,15.7872283 35.4966304,14.3272772 33.6956522,14.3272772 Z M36.396087,30.0032065 C36.0330978,30.0260326 35.6884239,30.2450543 35.5129348,30.5636957 C33.0654348,34.2245652 29.0303261,36.6098913 24.4565217,36.6098913 C19.8827174,36.6098913 15.8476087,34.2245652 13.4001087,30.5636957 C13.1849457,30.2302717 12.7760326,30.0326087 12.381087,30.0711413 C11.635163,30.1495652 11.1740217,31.1521196 11.5998913,31.7695109 C14.4207609,35.9894022 19.1271739,38.7838043 24.4565217,38.7838043 C29.7858696,38.7838043 34.4922826,35.9894022 37.3131522,31.7695109 C37.8214674,30.7835326 37.2547283,30.0427174 36.396087,30.0032065 Z" id="Shape"></path>
                </g>
            </g>
        </g>
    </g>
</svg>
