<svg width="160" height="140" viewBox="0 0 160 140" fill="none" xmlns="http://www.w3.org/2000/svg">
    <g filter="url(#filter0_d)">
        <circle cx="80" cy="70" r="30" fill="#062E64"/>
    </g>
    <path d="M68.572 57.1429C67.0006 57.1429 65.7148 58.4286 65.7148 60V75.4185C65.7148 76.0542 66.4842 76.3735 66.9342 75.9235L70.0006 72.8571H82.8577C84.4291 72.8571 85.7148 71.5714 85.7148 70V60C85.7148 58.4286 84.4291 57.1429 82.8577 57.1429H68.572ZM88.572 64.2857V70C88.572 73.1557 86.0134 75.7143 82.8577 75.7143H74.2863V77.1429C74.2863 78.7143 75.572 80 77.1434 80H90.0006L93.067 83.0664C93.517 83.5164 94.2863 83.1971 94.2863 82.5614V67.1429C94.2863 65.5714 93.0006 64.2857 91.4291 64.2857H88.572Z" fill="white"/>
    <defs>
        <filter id="filter0_d" x="0" y="0" width="160" height="160" filterUnits="userSpaceOnUse" color-interpolation-filters="sRGB">
            <feFlood flood-opacity="0" result="BackgroundImageFix"/>
            <feColorMatrix in="SourceAlpha" type="matrix" values="0 0 0 0 0 0 0 0 0 0 0 0 0 0 0 0 0 0 127 0"/>
            <feOffset dy="10"/>
            <feGaussianBlur stdDeviation="25"/>
            <feColorMatrix type="matrix" values="0 0 0 0 0 0 0 0 0 0 0 0 0 0 0 0 0 0 0.25 0"/>
            <feBlend mode="normal" in2="BackgroundImageFix" result="effect1_dropShadow"/>
            <feBlend mode="normal" in="SourceGraphic" in2="effect1_dropShadow" result="shape"/>
        </filter>
    </defs>
</svg>
